<svg width="13" height="20" viewBox="0 0 13 20" fill="none" xmlns="http://www.w3.org/2000/svg">
<g clip-path="url(#clip0_152_21416)">
<path d="M3.25106 20C5.0445 20 6.50004 18.5067 6.50004 16.6667V13.3333H3.25106C1.45762 13.3333 0.0020752 14.8267 0.0020752 16.6667C0.0020752 18.5067 1.45762 20 3.25106 20Z" fill="#0ACF83"/>
<path d="M0.0020752 9.99999C0.0020752 8.15999 1.45762 6.66666 3.25106 6.66666H6.50004V13.3333H3.25106C1.45762 13.3333 0.0020752 11.84 0.0020752 9.99999Z" fill="#A259FF"/>
<path d="M0.0020752 3.33333C0.0020752 1.49333 1.45762 0 3.25106 0H6.50004V6.66667H3.25106C1.45762 6.66667 0.0020752 5.17333 0.0020752 3.33333Z" fill="#F24E1E"/>
<path d="M6.5 0H9.74898C11.5424 0 12.998 1.49333 12.998 3.33333C12.998 5.17333 11.5424 6.66667 9.74898 6.66667H6.5V0Z" fill="#FF7262"/>
<path d="M12.998 9.99999C12.998 11.84 11.5424 13.3333 9.74898 13.3333C7.95555 13.3333 6.5 11.84 6.5 9.99999C6.5 8.15999 7.95555 6.66666 9.74898 6.66666C11.5424 6.66666 12.998 8.15999 12.998 9.99999Z" fill="#1ABCFE"/>
</g>
<defs>
<clipPath id="clip0_152_21416">
<rect width="13" height="20" fill="white"/>
</clipPath>
</defs>
</svg>
